<svg xmlns="http://www.w3.org/2000/svg" viewBox="0 0 512 512">
  <defs>
    <style>
      .logo-fill {
        fill: #104a96;
      }
    </style>
  </defs>
  <!-- Background bianco -->
  <rect width="512" height="512" fill="white" rx="50"/>
  
  <!-- Logo LABA centrato e scalato -->
  <g transform="translate(50, 80) scale(0.57)">
    <path class="logo-fill" d="M643.45,0h-55.84l-8.93,25.12-46.01,129.67c-1.28-8.97-4.08-16.95-8.45-23.83-6.17-9.54-15.24-16.52-27.3-20.94,7.93-4.08,13.91-8.59,17.99-13.53,7.31-8.78,10.97-20.46,10.97-34.94s-3.61-26.11-10.83-36.23C503.05,8.88,482.63.43,453.81,0h-114.09v185.22l-44.77-127.29-19.18-54.36-1.23-3.56h-55.84l-54.36,153.22-14.77,41.54H49.33V0H0v237.45h186.03l16-48.81h86.98l15.57,48.81h141.54c11.97,0,23.12-1.09,33.38-3.23,10.26-2.14,19.13-6.13,26.68-11.92,1.23-.95,2.42-1.99,3.56-2.99l-6.46,18.14h51.66l16-48.81h86.94l15.57,48.81h53.51L643.45,0ZM214.28,147.71l12.77-38.98,17.85-54.41,9.12,28.58,9.97,31.19,10.73,33.62h-60.44ZM385.63,41.26h51.33c11.35,0,20.65,1.23,27.92,3.7,8.45,3.51,12.68,10.82,12.68,21.89,0,10.02-3.18,16.95-9.59,20.89-6.36,3.89-14.72,5.84-24.97,5.84h-57.36v-52.32ZM466.87,192.01c-5.7,2.8-13.67,4.18-23.93,4.18h-57.31v-63.29h58.12c10.11.1,17.99,1.47,23.6,4.04,10.02,4.61,15.05,13.1,15.05,25.45,0,14.58-5.18,24.45-15.53,29.63ZM583.15,147.71l3.42-10.4v-.05l9.26-28.2.33-1,14.34-43.78,3.28-9.97.19.52,29.67,92.87h-60.49Z"/>
  </g>
</svg>
